<svg width="1920" height="249" viewBox="0 0 1920 249" fill="none" xmlns="http://www.w3.org/2000/svg">
<path fill-rule="evenodd" clip-rule="evenodd" d="M0 51.6667L107.2 43.0556C212.8 34.4444 427.2 17.2222 640 25.8333C852.8 34.4444 1067.2 68.8889 1280 68.8889C1492.8 68.8889 1707.2 34.4444 1812.8 17.2222L1920 0V155H1812.8C1707.2 155 1492.8 155 1280 155C1067.2 155 852.8 155 640 155C427.2 155 212.8 155 107.2 155H0V51.6667Z" fill="#F8F7F7"/>
<path fill-rule="evenodd" clip-rule="evenodd" d="M0 123.667L107.2 113.222C212.8 102.778 427.2 81.8889 640 92.3333C852.8 102.778 1067.2 144.556 1280 144.556C1492.8 144.556 1707.2 102.778 1812.8 81.8889L1920 61V249H1812.8C1707.2 249 1492.8 249 1280 249C1067.2 249 852.8 249 640 249C427.2 249 212.8 249 107.2 249H0V123.667Z" fill="#ECECEC"/>
</svg>
