<svg width="41" height="41" viewBox="0 0 41 41" fill="none" xmlns="http://www.w3.org/2000/svg">
<path d="M38.8824 8.18897H30.0561V0H10.9241V8.18897H2.11765C1.55622 8.18969 1.018 8.41315 0.621014 8.81035C0.224032 9.20754 0.000701318 9.74604 0 10.3077V38.8813C0.000723937 39.443 0.224065 39.9815 0.621044 40.3787C1.01802 40.7758 1.55623 40.9993 2.11765 41H38.8824C39.4438 40.9993 39.982 40.7758 40.379 40.3787C40.7759 39.9815 40.9993 39.443 41 38.8813V10.3077C40.9993 9.74604 40.776 9.20754 40.379 8.81035C39.982 8.41315 39.4438 8.18969 38.8824 8.18897ZM13.6601 2.73733H27.3201V8.18897H13.6601V2.73733ZM38.1327 11.0579V17.9256L33.5861 22.4744H21.9337V18.4769H19.0663V22.4744H7.4139L2.86731 17.9256V11.0579H38.1327ZM2.86731 38.1313V21.9826L6.22623 25.3433H19.0663V29.3835H21.9337V25.3433H34.7738L38.1327 21.9826V38.1313H2.86731Z" fill="#FF3B30"/>
</svg>
